# xmcd
#
# Track frame offsets: 
#        150
#        26838
#        45512
#        68534
#        90070
#        111912
#        126695
#        146809
#        178098
#        188511
#        211453
#
# Disc length: 3026 seconds
#
# Revision: 4
# Processed by: cddbd v1.5.2PL0 Copyright (c) Steve Scherf et al.
# Submitted via: ExactAudioCopy v0.99pb4
#
DISCID=9a0bd00b
DTITLE=Touré, Ali Farka and Diabaté, Toumani - Ali and Toumani
DYEAR=2010
DGENRE=World
TTITLE0=Ruby
TTITLE1=Sabu Yerkoy
TTITLE2=Bé Mankan
TTITLE3=Doudou
TTITLE4=Warbé
TTITLE5=Samba Geladio
TTITLE6=Sina Mory
TTITLE7=56
TTITLE8=Fantasia
TTITLE9=Machengoidi
TTITLE10=Kala Djula
EXTD=
EXTT0=
EXTT1=
EXTT2=
EXTT3=
EXTT4=
EXTT5=
EXTT6=
EXTT7=
EXTT8=
EXTT9=
EXTT10=
PLAYORDER=
